G04 EAGLE Gerber RS-274X export*
G75*
%MOMM*%
%FSLAX34Y34*%
%LPD*%
%INSoldermask Bottom*%
%IPPOS*%
%AMOC8*
5,1,8,0,0,1.08239X$1,22.5*%
G01*
%ADD10P,2.556822X8X22.500000*%
%ADD11R,2.743200X2.743200*%
%ADD12C,2.743200*%
%ADD13P,1.869504X8X22.500000*%
%ADD14P,1.869504X8X202.500000*%
%ADD15P,1.951982X8X22.500000*%
%ADD16C,1.803400*%
%ADD17P,1.649562X8X202.500000*%
%ADD18P,1.951982X8X202.500000*%
%ADD19C,2.203200*%
%ADD20R,2.203200X2.203200*%
%ADD21C,1.981200*%
%ADD22R,1.981200X1.981200*%
%ADD23C,2.133600*%
%ADD24R,2.133600X2.133600*%
%ADD25R,3.619200X3.619200*%
%ADD26C,3.619200*%


D10*
X406400Y596900D03*
D11*
X546100Y596900D03*
D12*
X495300Y596900D03*
X444500Y596900D03*
D13*
X63500Y203200D03*
X114300Y203200D03*
X88900Y228600D03*
X469900Y203200D03*
X520700Y203200D03*
X495300Y228600D03*
D14*
X241300Y88900D03*
X190500Y88900D03*
D13*
X165100Y292100D03*
X215900Y292100D03*
D15*
X266700Y419100D03*
D16*
X241300Y419100D03*
D15*
X508000Y482600D03*
D16*
X482600Y482600D03*
D15*
X304800Y203200D03*
D16*
X279400Y203200D03*
D14*
X114300Y546100D03*
X63500Y546100D03*
D13*
X266700Y546100D03*
X317500Y546100D03*
D17*
X114300Y508000D03*
X63500Y508000D03*
D18*
X279400Y139700D03*
D16*
X304800Y139700D03*
D13*
X368300Y292100D03*
X419100Y292100D03*
D17*
X393700Y88900D03*
X342900Y88900D03*
D18*
X317500Y419100D03*
D16*
X342900Y419100D03*
D11*
X546100Y330200D03*
D12*
X495300Y330200D03*
X444500Y330200D03*
D11*
X546100Y63500D03*
D12*
X495300Y63500D03*
X444500Y63500D03*
D19*
X457200Y558800D03*
D20*
X533400Y558800D03*
D21*
X101600Y25400D03*
D22*
X76200Y25400D03*
D11*
X139700Y63500D03*
D12*
X88900Y63500D03*
X38100Y63500D03*
D11*
X139700Y330200D03*
D12*
X88900Y330200D03*
X38100Y330200D03*
D10*
X203200Y596900D03*
X177800Y596900D03*
X381000Y596900D03*
D20*
X254000Y342900D03*
D19*
X254000Y317500D03*
X254000Y292100D03*
X254000Y266700D03*
X330200Y266700D03*
X330200Y292100D03*
X330200Y317500D03*
X330200Y342900D03*
D10*
X254000Y38100D03*
X139700Y25400D03*
D11*
X342900Y596900D03*
D12*
X292100Y596900D03*
X241300Y596900D03*
D10*
X342900Y38100D03*
D23*
X190500Y139700D03*
X215900Y139700D03*
D24*
X241300Y139700D03*
D23*
X342900Y139700D03*
X368300Y139700D03*
D24*
X393700Y139700D03*
D13*
X177800Y63500D03*
X254000Y63500D03*
X50800Y368300D03*
X127000Y368300D03*
X457200Y292100D03*
X533400Y292100D03*
D14*
X406400Y228600D03*
X330200Y228600D03*
D13*
X457200Y533400D03*
X533400Y533400D03*
D14*
X254000Y203200D03*
X177800Y203200D03*
D13*
X177800Y228600D03*
X254000Y228600D03*
D14*
X127000Y469900D03*
X50800Y469900D03*
X127000Y444500D03*
X50800Y444500D03*
D13*
X330200Y203200D03*
X406400Y203200D03*
D14*
X114300Y127000D03*
X63500Y127000D03*
X88900Y101600D03*
D10*
X38100Y25400D03*
D11*
X139700Y596900D03*
D12*
X88900Y596900D03*
X38100Y596900D03*
D25*
X245110Y476250D03*
D26*
X292100Y476250D03*
X339090Y476250D03*
D10*
X495300Y101600D03*
X444500Y101600D03*
X546100Y101600D03*
X495300Y152400D03*
X546100Y152400D03*
X444500Y152400D03*
X495300Y127000D03*
X546100Y127000D03*
X444500Y127000D03*
D13*
X63500Y279400D03*
X114300Y279400D03*
X88900Y304800D03*
M02*
