M48
;GenerationSoftware,Autodesk,EAGLE,9.6.2*%
;CreationDate,2022-05-09T15:47:41Z*%
FMAT,2
ICI,OFF
METRIC,TZ,000.000
T7C0.350
T6C0.813
T5C0.900
T4C1.000
T3C1.016
T2C1.400
T1C2.400
%
G90
M71
T1
X33909Y47625
X29210Y47625
X24511Y47625
T2
X8890Y6350
X49530Y6350
X8890Y59690
X13970Y59690
X3810Y33020
X54610Y59690
X49530Y59690
X44450Y59690
X3810Y6350
X13970Y33020
X8890Y33020
X44450Y6350
X3810Y59690
X29210Y59690
X34290Y59690
X13970Y6350
X24130Y59690
X54610Y33020
X49530Y33020
X44450Y33020
X54610Y6350
T3
X25400Y3810
X40640Y59690
X20320Y59690
X17780Y59690
X38100Y59690
X34290Y3810
X13970Y2540
X3810Y2540
X49530Y10160
X44450Y10160
X54610Y10160
X49530Y15240
X54610Y15240
X44450Y15240
X49530Y12700
X54610Y12700
X44450Y12700
T4
X36830Y13970
X39370Y13970
X25400Y31750
X25400Y26670
X33020Y26670
X33020Y29210
X33020Y31750
X33020Y34290
X25400Y29210
X53340Y55880
X45720Y55880
X25400Y34290
X19050Y13970
X21590Y13970
X24130Y13970
X34290Y13970
T5
X10160Y2540
X7620Y2540
T6
X31750Y41910
X34290Y41910
X31750Y54610
X52070Y20320
X6350Y20320
X11430Y20320
X8890Y22860
X46990Y20320
X49530Y22860
X24130Y8890
X19050Y8890
X16510Y29210
X21590Y29210
X26670Y41910
X17780Y6350
X25400Y6350
X5080Y36830
X12700Y36830
X45720Y29210
X53340Y29210
X40640Y22860
X33020Y22860
X45720Y53340
X53340Y53340
X25400Y20320
X24130Y41910
X17780Y22860
X25400Y22860
X12700Y46990
X5080Y46990
X12700Y44450
X5080Y44450
X33020Y20320
X40640Y20320
X11430Y12700
X6350Y12700
X8890Y10160
X50800Y48260
X48260Y48260
X30480Y20320
X17780Y20320
X27940Y20320
X11430Y54610
X6350Y54610
X26670Y54610
X11430Y50800
X6350Y50800
X27940Y13970
X30480Y13970
X36830Y29210
X41910Y29210
X39370Y8890
X34290Y8890
X6350Y27940
X11430Y27940
X8890Y30480
T7
X30480Y2080
X46990Y16510
X13970Y20320
X11430Y16510
X50800Y26670
X52070Y24130
X28400Y2080
M30